<svg id="Icon_Set" enable-background="new 0 0 64 64" height="512" viewBox="0 0 64 64" width="512" xmlns="http://www.w3.org/2000/svg"><circle cx="42.5" cy="22" fill="#c2c2c2" r="16"/><path d="m42.5 38.5c-9.098 0-16.5-7.402-16.5-16.5s7.402-16.5 16.5-16.5 16.5 7.402 16.5 16.5-7.402 16.5-16.5 16.5zm0-32c-8.547 0-15.5 6.953-15.5 15.5s6.953 15.5 15.5 15.5 15.5-6.953 15.5-15.5-6.953-15.5-15.5-15.5z" fill="#212a41"/><circle cx="46.5" cy="22" fill="#e0e0e0" r="16"/><path d="m46.5 38.5c-9.098 0-16.5-7.402-16.5-16.5s7.402-16.5 16.5-16.5 16.5 7.402 16.5 16.5-7.402 16.5-16.5 16.5zm0-32c-8.547 0-15.5 6.953-15.5 15.5s6.953 15.5 15.5 15.5 15.5-6.953 15.5-15.5-6.953-15.5-15.5-15.5z" fill="#212a41"/><circle cx="46.5" cy="22" fill="#0079a8" r="12"/><path d="m46.5 34.5c-6.893 0-12.5-5.607-12.5-12.5s5.607-12.5 12.5-12.5 12.5 5.607 12.5 12.5-5.607 12.5-12.5 12.5zm0-24c-6.341 0-11.5 5.159-11.5 11.5s5.159 11.5 11.5 11.5 11.5-5.159 11.5-11.5-5.159-11.5-11.5-11.5z" fill="#212a41"/><circle cx="17.5" cy="42" fill="#c2c2c2" r="16"/><path d="m17.5 58.5c-9.098 0-16.5-7.402-16.5-16.5s7.402-16.5 16.5-16.5 16.5 7.402 16.5 16.5-7.402 16.5-16.5 16.5zm0-32c-8.547 0-15.5 6.953-15.5 15.5s6.953 15.5 15.5 15.5 15.5-6.953 15.5-15.5-6.953-15.5-15.5-15.5z" fill="#212a41"/><circle cx="21.5" cy="42" fill="#e0e0e0" r="16"/><path d="m21.5 58.5c-9.098 0-16.5-7.402-16.5-16.5s7.402-16.5 16.5-16.5 16.5 7.402 16.5 16.5-7.402 16.5-16.5 16.5zm0-32c-8.547 0-15.5 6.953-15.5 15.5s6.953 15.5 15.5 15.5 15.5-6.953 15.5-15.5-6.953-15.5-15.5-15.5z" fill="#212a41"/><circle cx="21.5" cy="42" fill="#f9ac2f" r="12"/><path d="m21.5 54.5c-6.893 0-12.5-5.607-12.5-12.5s5.607-12.5 12.5-12.5 12.5 5.607 12.5 12.5-5.607 12.5-12.5 12.5zm0-24c-6.341 0-11.5 5.159-11.5 11.5s5.159 11.5 11.5 11.5 11.5-5.159 11.5-11.5-5.159-11.5-11.5-11.5z" fill="#212a41"/><path d="m11.5 42.5c-.276 0-.5-.224-.5-.5 0-5.79 4.71-10.5 10.5-10.5.276 0 .5.224.5.5s-.224.5-.5.5c-5.238 0-9.5 4.262-9.5 9.5 0 .276-.224.5-.5.5z" fill="#ffca4d"/><path d="m21.5 52.5c-.276 0-.5-.224-.5-.5s.224-.5.5-.5c5.238 0 9.5-4.262 9.5-9.5 0-.276.224-.5.5-.5s.5.224.5.5c0 5.79-4.71 10.5-10.5 10.5z" fill="#db8e11"/><path d="m36.5 22.5c-.276 0-.5-.224-.5-.5 0-5.79 4.71-10.5 10.5-10.5.276 0 .5.224.5.5s-.224.5-.5.5c-5.238 0-9.5 4.262-9.5 9.5 0 .276-.224.5-.5.5z" fill="#1e97c6"/><path d="m46.5 32.5c-.276 0-.5-.224-.5-.5s.224-.5.5-.5c5.238 0 9.5-4.262 9.5-9.5 0-.276.224-.5.5-.5s.5.224.5.5c0 5.79-4.71 10.5-10.5 10.5z" fill="#005b8a"/><path d="m21.5 49.996c-2.527 0-5.055-1.187-6.664-3.56-1.788-2.637-1.796-6.201-.019-8.845 2.677-3.982 7.931-4.649 11.471-2.001.488.365.536 1.086.105 1.517l-.715.715c-.344.344-.883.386-1.278.104-2.229-1.588-5.481-1.128-7.118 1.381-1.054 1.615-1.054 3.772 0 5.387 1.637 2.508 4.889 2.969 7.118 1.381.396-.282.935-.24 1.278.104l.716.716c.428.428.387 1.147-.098 1.51-1.415 1.06-3.106 1.591-4.796 1.591z" fill="#e0e0e0"/><path d="m21.5 50.496c-2.869 0-5.449-1.377-7.078-3.779-1.904-2.811-1.912-6.59-.02-9.405 1.334-1.984 3.346-3.294 5.663-3.688 2.288-.391 4.67.18 6.522 1.565.348.26.564.659.596 1.095.032.438-.127.867-.437 1.176l-.715.715c-.516.517-1.325.583-1.922.157-.99-.706-2.25-.979-3.454-.751-1.215.229-2.265.939-2.955 1.999-.944 1.447-.944 3.393 0 4.84.69 1.059 1.74 1.769 2.955 1.999 1.204.229 2.464-.046 3.454-.751.597-.426 1.406-.359 1.922.157l.716.716c.31.311.47.74.438 1.179-.031.433-.246.828-.59 1.085-1.475 1.106-3.237 1.691-5.095 1.691zm-.009-15.991c-.419 0-.84.035-1.258.106-2.045.347-3.821 1.505-5.001 3.259-1.667 2.48-1.66 5.81.018 8.286 1.439 2.123 3.718 3.34 6.25 3.34 1.64 0 3.194-.516 4.496-1.492.153-.115.187-.273.192-.357.011-.149-.043-.295-.147-.4l-.716-.715c-.171-.17-.437-.19-.635-.05-1.211.862-2.749 1.198-4.22.92-1.485-.281-2.767-1.146-3.607-2.435-1.157-1.774-1.157-4.159 0-5.934.841-1.289 2.122-2.153 3.607-2.435 1.472-.279 3.01.057 4.22.92.197.14.464.12.635-.05l.715-.714c.104-.104.157-.249.146-.397s-.081-.278-.198-.366c-1.295-.97-2.884-1.486-4.497-1.486z" fill="#212a41"/><path d="m44.5 17.25h-5c-.552 0-1 .448-1 1v1c0 .552.448 1 1 1h1v5.5c0 .552.448 1 1 1h1c.552 0 1-.448 1-1v-5.5h1c.552 0 1-.448 1-1v-1c0-.552-.448-1-1-1z" fill="#e0e0e0"/><path d="m42.5 27.25h-1c-.827 0-1.5-.673-1.5-1.5v-5h-.5c-.827 0-1.5-.673-1.5-1.5v-1c0-.827.673-1.5 1.5-1.5h5c.827 0 1.5.673 1.5 1.5v1c0 .827-.673 1.5-1.5 1.5h-.5v5c0 .827-.673 1.5-1.5 1.5zm-3-9.5c-.275 0-.5.224-.5.5v1c0 .276.225.5.5.5h1c.276 0 .5.224.5.5v5.5c0 .276.225.5.5.5h1c.275 0 .5-.224.5-.5v-5.5c0-.276.224-.5.5-.5h1c.275 0 .5-.224.5-.5v-1c0-.276-.225-.5-.5-.5z" fill="#212a41"/><path d="m53.5 26.75h-1c-.552 0-1-.448-1-1v-3.546l-1.5 2.25-1.5-2.25v3.546c0 .552-.448 1-1 1h-1c-.552 0-1-.448-1-1v-7.5c0-.552.448-1 1-1h1.768c.334 0 .647.167.832.445l.9 1.351.9-1.351c.185-.278.498-.445.832-.445h1.768c.552 0 1 .448 1 1v7.5c0 .552-.448 1-1 1z" fill="#e0e0e0"/><path d="m53.5 27.25h-1c-.827 0-1.5-.673-1.5-1.5v-1.895l-.584.876c-.186.278-.646.278-.832 0l-.584-.876v1.895c0 .827-.673 1.5-1.5 1.5h-1c-.827 0-1.5-.673-1.5-1.5v-7.5c0-.827.673-1.5 1.5-1.5h1.768c.503 0 .969.25 1.248.668l.484.727.484-.727c.279-.418.745-.668 1.248-.668h1.768c.827 0 1.5.673 1.5 1.5v7.5c0 .827-.673 1.5-1.5 1.5zm-2-5.546c.048 0 .097.007.145.021.21.065.355.259.355.479v3.546c0 .276.225.5.5.5h1c.275 0 .5-.224.5-.5v-7.5c0-.276-.225-.5-.5-.5h-1.768c-.168 0-.323.083-.416.223l-.9 1.351c-.186.278-.646.278-.832 0l-.9-1.351c-.093-.14-.248-.223-.416-.223h-1.768c-.275 0-.5.224-.5.5v7.5c0 .276.225.5.5.5h1c.275 0 .5-.224.5-.5v-3.546c0-.22.145-.415.355-.479.212-.063.438.019.561.201l1.084 1.627 1.084-1.626c.095-.142.252-.223.416-.223z" fill="#212a41"/></svg>