<svg id="Layer_1" enable-background="new 0 0 512 512" height="512" viewBox="0 0 512 512" width="512" xmlns="http://www.w3.org/2000/svg"><g><path d="m175.667 335.267h-64.267c-8.284 0-15-6.716-15-15 0-123.441 100.426-223.867 223.867-223.867 8.284 0 15 6.716 15 15v64.267c0 8.284-6.716 15-15 15-71.462 0-129.6 58.138-129.6 129.6 0 8.284-6.716 15-15 15z" fill="#50250a"/><path d="m320.267 190.667c8.284 0 15-6.716 15-15v-64.267c0-8.284-6.716-15-15-15-61.72 0-117.687 25.107-158.223 65.643l66.625 66.625c23.467-23.467 55.867-38.001 91.598-38.001z" fill="#281400"/><path d="m320.267 160.667c-88.145 0-159.6 71.455-159.6 159.6v60.371c0 39.949-15.558 77.507-43.807 105.756-4.29 4.29-5.573 10.742-3.252 16.347 2.322 5.605 7.791 9.26 13.858 9.26h96.399c26.032-.001 47.135-21.104 47.135-47.135v-120.5c0-13.899 11.268-25.167 25.167-25.167s25.167 11.268 25.167 25.167l-.001 120.5c0 26.031 21.103 47.134 47.134 47.134s47.134-21.103 47.134-47.134l-.001-129.6h49.266c8.284 0 15-6.716 15-15 0-88.144-71.455-159.599-159.599-159.599z" fill="#ffdc32"/><path d="m321.334 344.367-.001 120.5c0 26.031 21.103 47.134 47.134 47.134s47.134-21.103 47.134-47.134l-.001-129.6h49.266c8.284 0 15-6.716 15-15 0-88.144-71.455-159.6-159.6-159.6-8.192 0-16.24.62-24.1 1.81v156.723c13.9 0 25.168 11.267 25.168 25.167z" fill="#ffb400"/><path d="m497 367.4h-160.667c-8.284 0-15-6.716-15-15v-80.333c0-8.284 6.716-15 15-15h112.467c18.307 0 33.2-14.894 33.2-33.2 0-8.284 6.716-15 15-15s15 6.716 15 15v128.533c0 8.284-6.716 15-15 15z" fill="#ff9100"/><path d="m111.4 320.266c0-115.354 93.513-208.866 208.866-208.866 5.045 0 10.046.185 15 .54.017.001.035.003.053.004 3.309.238 6.562-.945 8.907-3.291l71.173-71.173c4.623-4.622 5.812-11.829 2.54-17.845-1.934-3.556-5.315-6.119-9.206-7.236-28.653-8.227-58.416-12.399-88.466-12.399-176.565 0-320.216 143.62-320.267 320.172-.002 8.302 6.698 15.095 15 15.095h96.4c.2-.214.304-.325.504-.539-.327-4.78-.504-9.6-.504-14.462z" fill="#ff325a"/><path d="m320.267 111.4c5.045 0 10.046.185 15 .54.018.001.035.003.052.004 3.309.238 6.562-.945 8.907-3.291l71.173-71.173c4.623-4.623 5.812-11.829 2.54-17.844-1.934-3.556-5.315-6.119-9.206-7.237-28.653-8.227-58.416-12.399-88.466-12.399-88.298 0-168.364 35.918-226.357 93.91l78.665 78.666c37.798-37.798 90.015-61.176 147.692-61.176z" fill="#e10032"/></g></svg>