<svg height="512pt" viewBox="-59 0 511 512" width="512pt" xmlns="http://www.w3.org/2000/svg"><g fill="#fcbd8a"><path d="m163.90625 471.90625h30v40.039062h-30zm0 0"/><path d="m233.765625 471.90625h30v40.039062h-30zm0 0"/><path d="m212.890625 108c29.742187 0 53.9375-24.226562 53.9375-54s-24.195313-54-53.9375-54-53.941406 24.222656-53.941406 54c0 29.773438 24.195312 54 53.941406 54zm0 0"/><path d="m340.339844 185.492188-40.035156 46.53125-31.886719-48.964844-4.179688 34.515625 6.925781 68.464843 2.070313 17.675782h-122.28125l2.039063-17.378906 6.542968-68.71875-2.535156-20.960938-23.078125 52.683594-46.804687 33.730468-14.300782-26.792968 36.863282-26.5625 45.804687-104.566406h111.125l37.03125 56.867187 39.777344-46.226563h10.589843v49.460938zm0 0"/></g><path d="m152.992188 286.335938-23.597657 201.152343h165.371094l-23.601563-201.449219zm0 0" fill="#00ddc1"/><path d="m233.765625 471.90625h30v40.039062h-30zm0 0" fill="#f4a971"/><path d="m92.511719 293.507812-92.011719-172.386718 31.023438 142.253906-24.300782-.132812 92.804688 156.25-30.746094-125.984376zm0 0" fill="#ffda2d"/><path d="m266.828125 54c0-29.777344-24.195313-54-53.9375-54v108c29.742187 0 53.9375-24.226562 53.9375-54zm0 0" fill="#f4a971"/><path d="m343.417969 135.789062-39.777344 46.226563-37.03125-56.867187h-53.71875v178.566406h60.34375l-2.070313-17.675782-6.925781-68.464843 4.179688-34.515625 31.886719 48.964844 40.035156-46.53125 13.667968-.242188v-49.460938zm0 0" fill="#f4a971"/><path d="m348.5625 52.695312-5.144531 83.09375-23.179688 374.347657 30.015625 1.863281 28.1875-455.226562zm0 0" fill="#00607f"/><path d="m152.992188 286.335938-23.597657 201.152343h97.753907l44.015624-201.449219zm0 0" fill="#00ccb2"/><path d="m271.164062 286.039062-58.273437.144532v201.304687h81.875zm0 0" fill="#00ddc1"/><path d="m271.164062 286.039062-58.273437.144532v201.304687h14.257813zm0 0" fill="#00ab94"/><path d="m361.992188 73.636719-26.023438-31.292969 31.257812-26.050781 26.023438 31.289062zm0 0" fill="#00465f"/></svg>